P3
8 5
255
179 96 0 190 102 0 204 110 0 120 121 105 33 102 158 9 31 55 29 4 13 60 9 27 158 85 0 168 90 0 181 97 0 186 100 0 62 33 0 0 0 0 10 1 4 35 5 16 134 72 0 143 77 0 154 83 0 130 70 0 38 20 0 0 0 0 0 0 0 12 1 5 106 57 0 114 61 0 121 65 0 48 44 9 5 31 14 0 10 5 0 0 0 0 0 0 86 46 0 92 49 0 96 51 0 37 74 28 7 89 44 2 30 15 0 0 0 0 0 0 